<?xml version="1.0" encoding="UTF-8" standalone="no"?>
<!DOCTYPE svg PUBLIC "-//W3C//DTD SVG 1.1//EN"
"http://www.w3.org/Graphics/SVG/1.1/DTD/svg11.dtd">


<!-- Page 1 -->
<svg x="0" y="0" width="705" height="906" viewBox="0 0 705 906" version="1.1" xmlns="http://www.w3.org/2000/svg" xmlns:xlink="http://www.w3.org/1999/xlink"
style="display: block;margin-left: auto;margin-right: auto;">
<defs>
<clipPath id="c0_1"><path d="M301.1,605.2V417.6H338V605.2Z" /></clipPath>

<style type="text/css"><![CDATA[
text { white-space: pre; }
path, image { pointer-events: none; }

.s1_1{
font-size: 19.86px;
font-family: SourceSansPro-Bold_8;
fill: #2367B2;
}
.s2_1{
font-size: 19.86px;
font-family: SourceSansPro-Semibold_9;
fill: #050604;
}
.s3_1{
font-size: 19.86px;
font-family: SourceSansPro-Regular_a;
fill: #2367B2;
}
.s4_1{
font-size: 19.86px;
font-family: SourceSansPro-Regular_a;
fill: #231F20;
}
.s5_1{
font-size: 20.63px;
font-family: SourceSansPro-Bold_8;
fill: #050604;
}
.s6_1{
font-size: 16.81px;
font-family: SourceSansPro-Bold_8;
fill: #050604;
}
.s7_1{
font-size: 21.39px;
font-family: SourceSansPro-Regular_a;
fill: #040503;
}
.s8_1{
font-size: 16.81px;
font-family: SourceSansPro-Semibold_9;
fill: #FFFFFF;
}
.s9_1{
font-size: 18.33px;
font-family: Menlo-Regular_b;
fill: #040503;
}

.g0_1{
fill: #1F9DA0;
fill-opacity: 0.800003;
}
.g1_1{
fill: #E02A26;
fill-opacity: 0.800003;
}
.g2_1{
fill: #35B44A;
fill-opacity: 0.800003;
}
.g3_1{
fill: #DED020;
fill-opacity: 0.800003;
}
.g4_1{
fill: #DE9A25;
fill-opacity: 0.800003;
}
.g5_1{
fill: none;
stroke: #231F20;
stroke-width: 1.5277778;
stroke-linecap: butt;
stroke-linejoin: miter;
}
.g6_1{
fill: #231F20;
}
.g7_1{
fill: #B2B3B7;
}
.g8_1{
fill: #808285;
}
.g9_1{
fill: #FFFFFF;
}
.g10_1{
fill: #DDDFE1;
}
.g11_1{
fill: #040503;
}
.g12_1{
fill: #545960;
}

]]></style>

</defs>
<path d="M0,0
L0,906
L705,906
L705,0 Z " 
fill="#FFFFFF" stroke="none" />
<path d="M504.7,747.2c0,4.1,-4.1,7.4,-9.1,7.4h-321c-5,0,-9.1,-3.3,-9.1,-7.4v-79c0,-4.1,4.1,-7.5,9.1,-7.5h321c5,0,9.1,3.4,9.1,7.5Z" class="g0_1" />
<path d="M504.1,887.6c0,4.6,-4,8.4,-9,8.4h-321c-5.1,0,-9.1,-3.8,-9.1,-8.4v-89c0,-4.6,4,-8.4,9.1,-8.4h321c5,0,9,3.8,9,8.4Z" class="g1_1" />
<path d="M474.6,179.8c0,8.1,-3.6,14.7,-8,14.7H182.5c-4.5,0,-8.1,-6.6,-8.1,-14.7V24.9c0,-8.1,3.6,-14.7,8.1,-14.7H466.6c4.4,0,8,6.6,8,14.7Z" class="g2_1" />
<path d="M494.1,319c0,4.3,-4.1,7.8,-9.1,7.8H164c-5,0,-9.1,-3.5,-9.1,-7.8V237.4c0,-4.3,4.1,-7.8,9.1,-7.8H485c5,0,9.1,3.5,9.1,7.8Z" class="g3_1" />
<path d="M698.2,604.1c0,11.6,-8.3,20.9,-18.5,20.9H27.5C17.3,625,9.1,615.7,9.1,604.1V383c0,-11.5,8.2,-20.9,18.4,-20.9H679.7c10.2,0,18.5,9.4,18.5,20.9Z" class="g4_1" />
<text x="179" y="301" dx="0,0,0,0,0.1,0,-0.2,0,0,0,0,0" class="s1_1">&gt; devtools::</text>
<text x="278" y="301" dx="0,0,-0.2,-0.2,0,-0.2,0,0,0,0,0,0,0,0,0,0,0,0,0,0,0,0" class="s2_1">create(”path/to/name”)</text>
<text x="344" y="479" class="s1_1">&gt; </text>
<text x="360" y="479" dx="0,0,0.1,0,-0.2,0,0,0,0,0" class="s3_1">devtools::</text>
<text x="442" y="479" dx="0,0,-0.2,0,0,0,0,0,0,0" class="s2_1">load_all()</text>
<text x="344" y="503" class="s1_1">&gt; </text>
<text x="360" y="503" dx="0,0,0.1,0,-0.2,0,0,0,0,0" class="s3_1">devtools::</text>
<text x="442" y="503" dx="0,0,0,0,0,-0.2,0,0,0,0,0,0,0,0" class="s2_1">use_testthat()</text>
<text x="563" y="503" dx="0,0,0.1,0,-0.2,0,0,0,0,0" class="s3_1">devtools::</text>
<text x="647" y="503" dx="0,-0.2,0,0,0,0" class="s2_1">test()</text>
<text x="344" y="527" class="s1_1">&gt; </text>
<text x="360" y="527" dx="0,0,0.1,0,-0.2,0,0,0,0,0" class="s3_1">devtools::</text>
<text x="442" y="527" class="s2_1">document()</text>
<text x="344" y="551" class="s1_1">&gt; </text>
<text x="360" y="551" dx="0,0,0.1,0,-0.2,0,0,0,0,0" class="s3_1">devtools::</text>
<text x="442" y="551" dx="0,0,0,0,0,0,0,0,0,-0.3,0,-0.2,0,0" class="s2_1">use_vignette()</text>
<text x="345" y="573" class="s1_1">&gt; </text>
<text x="361" y="573" dx="0,0,0.1,0,-0.2,0,0,0,0,0" class="s3_1">devtools::</text>
<text x="442" y="573" dx="0,0,0,0,0,0,0,-0.3,0,0" class="s2_1">use_data()</text>
<text x="243" y="726" dx="0,0,0,0,0.1,0,-0.2,0,0,0,0,0" class="s3_1">&gt; devtools::</text>
<text x="342" y="726" class="s2_1">build()</text>
<text x="345" y="455" dx="0,0,0,0,0.1,0,-0.2,0,0,0,0,0" class="s1_1">&gt; devtools::</text>
<text x="442" y="455" dx="0,0,0,0,0,-0.2,0,0,-0.2,0,-0.3,0,0" class="s2_1">use_package()</text>
<text x="344" y="594" dx="0,0,-0.2,0,0,0,0,0,4.3,0,0,0,0,0,0" class="s2_1">@export @import</text>
<text x="256" y="852" class="s4_1">Twitter: </text>
<text x="323" y="852" class="s3_1">#rstats</text>
<text x="256" y="876" class="s4_1">R-package mailing list</text>
<text x="234" y="39" class="s5_1">Install Helper Packages</text>
<text x="217" y="72" class="s6_1">&gt; install.packages(”devtools”)</text>
<text x="217" y="92" class="s6_1">&gt; install.packages(”roxygen2”)</text>
<text x="217" y="113" class="s6_1">&gt; install.packages(”testthat”)</text>
<text x="217" y="133" class="s6_1">&gt; library(devtools)</text>
<text x="217" y="153" class="s6_1">&gt; library(roxygen2)</text>
<text x="217" y="173" class="s6_1">&gt; library(testthat)</text>
<text x="222" y="257" class="s5_1">Create Package Structure</text>
<text x="255" y="689" class="s5_1">Release Package</text>
<text x="205" y="390" class="s5_1">Populate Package Contents</text>
<text x="287" y="818" class="s5_1">Publicize</text>
<path d="M324.5,194.5v23.3" class="g5_1" />
<path d="M316.3,210.3l8.2,6.5l8.6,-6.5l-8.4,19.9Z" class="g6_1" />
<path d="M317.8,212.4l6.7,15.6V217.8Z" class="g7_1" />
<path d="M331.2,212.4L324.5,228V217.8Z" class="g8_1" />
<path d="M324.5,326.8v23.3" class="g5_1" />
<path d="M316.3,342.6l8.2,6.5l8.6,-6.5l-8.4,19.9Z" class="g6_1" />
<path d="M317.8,344.6l6.7,15.6V350.1Z" class="g7_1" />
<path d="M331.2,344.6l-6.7,15.6V350.1Z" class="g8_1" />
<path d="M325.1,625v23.8" class="g5_1" />
<path d="M316.8,641.3l8.3,6.5l8.5,-6.5l-8.4,19.9Z" class="g6_1" />
<path d="M318.4,643.4l6.7,15.6V648.8Z" class="g7_1" />
<path d="M331.8,643.4L325.1,659V648.8Z" class="g8_1" />
<path d="M325.1,754.7v23.6" class="g5_1" />
<path d="M316.8,770.8l8.3,6.5l8.5,-6.5l-8.4,19.9Z" class="g6_1" />
<path d="M318.4,772.9l6.7,15.6V778.3Z" class="g7_1" />
<path d="M331.8,772.9l-6.7,15.6V778.3Z" class="g8_1" />
<path d="M301.1,605.2H338V417.6H301.1V605.2Z" class="g9_1" />
<path d="M301.1,605.2H338V417.6H301.1V605.2Z" class="g9_1" />
<path d="M330.1,605.2H338V417.6h-7.9V605.2Z" class="g9_1" />
<g clip-path="url(#c0_1)">
<path d="M329.7,1524.1l.4,-1030.6c0,-4.2,3,-7.5,7.2,-7.5H837.9c4.2,0,7.1,3.3,7.1,7.5V1524.1c0,4.2,-2.9,6.9,-7.1,6.9H337.3c-4.2,0,-7.6,-2.7,-7.6,-6.9Z" class="g10_1" />
<path d="M329.4,507.6l.7,-31c0,-4.3,2.8,-7.4,7.1,-7.4H837.4c4.3,0,7.6,3.1,7.6,7.4v31c0,4.3,-3.3,7.4,-7.6,7.4H337.2c-4.3,0,-7.8,-3.1,-7.8,-7.4Z" class="g11_1" />
</g>
<path d="M313.3,605.2H338V417.6H313.3V605.2Z" class="g9_1" />
<path d="M313.3,605.2H338V417.6H313.3V605.2Z" class="g9_1" />
<path d="M32,605.2H338V417.6H32V605.2Z" class="g9_1" />
<path d="M32,605.2H338V417.6H32V605.2Z" class="g9_1" />
<path d="M32,605.2H323.3V417.6H32V605.2Z" class="g9_1" />
<text x="42" y="471" dx="0,-0.1,0,0,0,0,0,0,0,0,0,0,0,0,0,0,0,0,0,0,0,0,-0.4,0,0,0,0,0" class="s7_1">work with the 7 most common </text>
<path d="M32,605.2H262.9V512H32v93.2Z" class="g9_1" />
<path d="M32,605.2H299.1V508.4H32v96.8Z" class="g9_1" />
<path d="M108.4,575.7l-.6,-1.6c0,-4.8,4.5,-9.4,9.3,-9.4h75.8c4.8,0,8.1,4.6,8.1,9.4v1.6c0,4.8,-3.3,8.8,-8.1,8.8H117.1c-4.8,0,-8.7,-4,-8.7,-8.8Z" class="g11_1" />
<path d="M108.4,552.3l-.6,-1.6c0,-4.8,4.5,-8.9,9.3,-8.9h75.8c4.8,0,8.1,4.1,8.1,8.9v1.6c0,4.8,-3.3,9.3,-8.1,9.3H117.1c-4.8,0,-8.7,-4.5,-8.7,-9.3Z" class="g11_1" />
<text x="133" y="555" dx="0,0,-0.3,-0.1,0" class="s8_1">Setup</text>
<text x="116" y="579" dx="0,0,0,0,-0.2,0,0,-0.4,0,0" class="s8_1">Write code</text>
<text x="140" y="603" dx="0,-1.2,0,0" class="s8_1">Test</text>
<path d="M32,605.2H338V417.6H32V605.2Z" class="g9_1" />
<path d="M32,605.2H338V417.6H32V605.2Z" class="g9_1" />
<path d="M32,605.2H338V417.6H32V605.2Z" class="g9_1" />
<path d="M32,605.2H338V473H32V605.2Z" class="g9_1" />
<path d="M32,605.2H338V469.4H32V605.2Z" class="g9_1" />
<text x="35" y="495" class="s9_1">Package </text>
<path d="M49.4,508.9V504c.2,.1,.3,.2,.4,.3l4.1,4.2c.1,.1,.2,.2,.3,.4ZM38.9,521V504.6c0,-.3,.1,-.5,.3,-.7c.2,-.2,.4,-.3,.7,-.3h8.2v5.6c0,.3,.1,.5,.3,.7c.2,.2,.4,.3,.7,.3h5.5V521c0,.2,-.1,.5,-.2,.7c-.2,.2,-.5,.3,-.7,.3H39.9c-.3,0,-.5,-.1,-.7,-.3c-.2,-.2,-.3,-.5,-.3,-.7Z" class="g12_1" />
<text x="63" y="519" class="s9_1">DESCRIPTION </text>
<path d="M40.2,540.6c0,.2,.1,.5,.3,.7c.2,.2,.4,.3,.7,.3H53.7c.2,0,.5,-.1,.7,-.3c.1,-.2,.2,-.5,.2,-.7v-7.2c0,-.3,-.1,-.5,-.2,-.7c-.2,-.2,-.5,-.3,-.7,-.3H46.5c-.3,0,-.5,-.1,-.7,-.3c-.2,-.2,-.3,-.4,-.3,-.7v-.6c0,-.3,-.1,-.6,-.3,-.7c-.2,-.2,-.4,-.3,-.7,-.3H41.2c-.3,0,-.5,.1,-.7,.3c-.2,.1,-.3,.4,-.3,.7Zm-1.3,0v-9.8c0,-.7,.3,-1.2,.7,-1.7c.5,-.4,1,-.6,1.6,-.6h3.3c.6,0,1.2,.2,1.6,.6c.5,.5,.7,1,.7,1.7v.3h6.9c.6,0,1.1,.2,1.6,.7c.4,.4,.7,.9,.7,1.6v7.2c0,.6,-.3,1.1,-.7,1.6c-.5,.4,-1,.7,-1.6,.7H41.2c-.6,0,-1.1,-.3,-1.6,-.7c-.4,-.5,-.7,-1,-.7,-1.6Z" class="g12_1" />
<text x="65" y="542" class="s9_1">R/ </text>
<path d="M40.2,564.1c0,.3,.1,.5,.3,.7c.2,.2,.4,.3,.7,.3H53.7c.2,0,.5,-.1,.7,-.3c.1,-.2,.2,-.4,.2,-.7v-7.2c0,-.3,-.1,-.5,-.2,-.7c-.2,-.2,-.5,-.3,-.7,-.3H46.5c-.3,0,-.5,-.1,-.7,-.3c-.2,-.2,-.3,-.4,-.3,-.7v-.6c0,-.3,-.1,-.5,-.3,-.7c-.2,-.2,-.4,-.3,-.7,-.3H41.2c-.3,0,-.5,.1,-.7,.3c-.2,.2,-.3,.4,-.3,.7Zm-1.3,0v-9.8c0,-.6,.3,-1.2,.7,-1.6c.5,-.5,1,-.7,1.6,-.7h3.3c.6,0,1.2,.2,1.6,.7c.5,.4,.7,1,.7,1.6v.3h6.9c.6,0,1.1,.2,1.6,.7c.4,.4,.7,1,.7,1.6v7.2c0,.6,-.3,1.2,-.7,1.6c-.5,.5,-1,.7,-1.6,.7H41.2c-.6,0,-1.1,-.2,-1.6,-.7c-.4,-.4,-.7,-1,-.7,-1.6Z" class="g12_1" />
<text x="65" y="566" class="s9_1">tests/ </text>
<path d="M40.2,587.6c0,.3,.1,.5,.3,.7c.2,.2,.4,.3,.7,.3H53.7c.2,0,.5,-.1,.7,-.3c.1,-.2,.2,-.4,.2,-.7v-7.2c0,-.2,-.1,-.5,-.2,-.7c-.2,-.2,-.5,-.3,-.7,-.3H46.5c-.3,0,-.5,0,-.7,-.2c-.2,-.2,-.3,-.5,-.3,-.7v-.7c0,-.3,-.1,-.5,-.3,-.7c-.2,-.2,-.4,-.3,-.7,-.3H41.2c-.3,0,-.5,.1,-.7,.3c-.2,.2,-.3,.4,-.3,.7Zm-1.3,0v-9.8c0,-.6,.3,-1.2,.7,-1.6c.5,-.5,1,-.7,1.6,-.7h3.3c.6,0,1.2,.2,1.6,.7c.5,.4,.7,1,.7,1.6v.3h6.9c.6,0,1.1,.3,1.6,.7c.4,.5,.7,1,.7,1.6v7.2c0,.7,-.3,1.2,-.7,1.6c-.5,.5,-1,.7,-1.6,.7H41.2c-.6,0,-1.1,-.2,-1.6,-.7c-.4,-.4,-.7,-.9,-.7,-1.6Z" class="g12_1" />
<text x="65" y="589" class="s9_1">man/ </text>
<path d="M216.1,536.7l-.6,-1.5c0,-4.8,4.5,-9.5,9.3,-9.5h75.8c4.8,0,8.1,4.7,8.1,9.5v1.5c0,4.8,-3.3,8.9,-8.1,8.9H224.8c-4.8,0,-8.7,-4.1,-8.7,-8.9Z" class="g11_1" />
<path d="M216.1,513.3l-.6,-1.5c0,-4.8,4.5,-9,9.3,-9h75.8c4.8,0,8.1,4.2,8.1,9v1.5c0,4.8,-3.3,9.4,-8.1,9.4H224.8c-4.8,0,-8.7,-4.6,-8.7,-9.4Z" class="g11_1" />
<path d="M216.1,560.1l-.6,-1.5c0,-4.8,4.5,-8.4,9.3,-8.4h75.8c4.8,0,8.1,3.6,8.1,8.4v1.5c0,4.8,-3.3,8.4,-8.1,8.4H224.8c-4.8,0,-8.7,-3.6,-8.7,-8.4Z" class="g11_1" />
<path d="M216.1,583.5l-.6,-1.5c0,-4.8,4.5,-8.9,9.3,-8.9h75.8c4.8,0,8.1,4.1,8.1,8.9v1.5c0,4.8,-3.3,9.5,-8.1,9.5H224.8c-4.8,0,-8.7,-4.7,-8.7,-9.5Z" class="g11_1" />
<text x="241" y="516" dx="0,0,-0.3,-0.1,0" class="s8_1">Setup</text>
<text x="224" y="540" dx="0,0,0,0,-0.2,0,0,-0.4,0,0" class="s8_1">Write code</text>
<text x="248" y="564" dx="0,-1.2,0,0" class="s8_1">Test</text>
<text x="226" y="588" class="s8_1">Document</text>
<path d="M32,605.2H338V417.6H32V605.2Z" class="g9_1" />
<path d="M32,605.2H338V417.6H32V605.2Z" class="g9_1" />
<path d="M32,605.2H335.5V417.6H32V605.2Z" class="g9_1" />
<text x="31" y="451" dx="0,-0.2,0,0,-0.1,0,0,0,0,0,0,0,0,0,0,0,0,0,0,0,0,0,0,0,0,-0.4,0,0,0,0,0" class="s7_1">to work with the 7 most common </text>
<path d="M32,605.2H275.1V492.9H32V605.2Z" class="g9_1" />
<path d="M32,605.2H311.4V489.3H32V605.2Z" class="g9_1" />
<path d="M120.6,556.6l-.5,-1.6c0,-4.8,4.4,-9.4,9.2,-9.4h75.8c4.8,0,8.2,4.6,8.2,9.4v1.6c0,4.8,-3.4,8.9,-8.2,8.9H129.3c-4.8,0,-8.7,-4.1,-8.7,-8.9Z" class="g11_1" />
<path d="M120.6,533.2l-.5,-1.6c0,-4.8,4.4,-8.9,9.2,-8.9h75.8c4.8,0,8.2,4.1,8.2,8.9v1.6c0,4.8,-3.4,9.3,-8.2,9.3H129.3c-4.8,0,-8.7,-4.5,-8.7,-9.3Z" class="g11_1" />
<path d="M120.6,579.9l-.5,-1.5c0,-4.8,4.4,-8.4,9.2,-8.4h75.8c4.8,0,8.2,3.6,8.2,8.4v1.5c0,4.9,-3.4,8.5,-8.2,8.5H129.3c-4.8,0,-8.7,-3.6,-8.7,-8.5Z" class="g11_1" />
<text x="146" y="536" dx="0,0,-0.3,-0.1,0" class="s8_1">Setup</text>
<text x="128" y="560" dx="0,0,0,0,-0.2,0,0,-0.4,0,0" class="s8_1">Write code</text>
<text x="152" y="584" dx="0,-1.2,0,0" class="s8_1">Test</text>
<path d="M32,605.2H338V417.6H32V605.2Z" class="g9_1" />
<path d="M32,605.2H338V417.6H32V605.2Z" class="g9_1" />
<path d="M32,605.2H338V417.6H32V605.2Z" class="g9_1" />
<path d="M32,605.2H338V453.9H32V605.2Z" class="g9_1" />
<text x="47" y="476" class="s9_1">Package </text>
<path d="M61.6,489.8v-4.9c.2,.1,.3,.2,.4,.3l4.2,4.2c.1,.1,.2,.2,.3,.4ZM51.2,501.9V485.5c0,-.3,0,-.5,.2,-.7c.2,-.2,.5,-.3,.7,-.3h8.2v5.6c0,.3,.1,.5,.3,.7c.2,.2,.4,.3,.7,.3h5.6v10.8c0,.2,-.1,.5,-.3,.7c-.2,.2,-.4,.3,-.7,.3H52.1c-.2,0,-.5,-.1,-.7,-.3c-.2,-.2,-.2,-.5,-.2,-.7Z" class="g12_1" />
<text x="76" y="500" class="s9_1">DESCRIPTION </text>
<path d="M52.5,521.5c0,.3,.1,.5,.2,.7c.2,.2,.5,.3,.7,.3H65.9c.3,0,.5,-.1,.7,-.3c.2,-.2,.3,-.4,.3,-.7v-7.2c0,-.3,-.1,-.5,-.3,-.7c-.2,-.2,-.4,-.3,-.7,-.3H58.7c-.3,0,-.5,-.1,-.7,-.3c-.2,-.2,-.3,-.4,-.3,-.7v-.6c0,-.3,-.1,-.5,-.3,-.7c-.2,-.2,-.4,-.3,-.7,-.3H53.4c-.2,0,-.5,.1,-.7,.3c-.1,.2,-.2,.4,-.2,.7Zm-1.3,0v-9.8c0,-.7,.2,-1.2,.6,-1.7c.5,-.4,1,-.6,1.6,-.6h3.3c.6,0,1.2,.2,1.6,.6c.5,.5,.7,1,.7,1.7v.3h6.9c.6,0,1.2,.2,1.6,.7c.5,.4,.7,.9,.7,1.6v7.2c0,.6,-.2,1.1,-.7,1.6c-.4,.4,-1,.7,-1.6,.7H53.4c-.6,0,-1.1,-.3,-1.6,-.7c-.4,-.5,-.6,-1,-.6,-1.6Z" class="g12_1" />
<text x="77" y="523" class="s9_1">R/ </text>
<path d="M52.5,545c0,.3,.1,.5,.2,.7c.2,.2,.5,.3,.7,.3H65.9c.3,0,.5,-.1,.7,-.3c.2,-.2,.3,-.4,.3,-.7v-7.2c0,-.3,-.1,-.5,-.3,-.7c-.2,-.2,-.4,-.3,-.7,-.3H58.7c-.3,0,-.5,-.1,-.7,-.3c-.2,-.2,-.3,-.4,-.3,-.7v-.6c0,-.3,-.1,-.5,-.3,-.7c-.2,-.2,-.4,-.3,-.7,-.3H53.4c-.2,0,-.5,.1,-.7,.3c-.1,.2,-.2,.4,-.2,.7Zm-1.3,0v-9.8c0,-.6,.2,-1.2,.6,-1.6c.5,-.5,1,-.7,1.6,-.7h3.3c.6,0,1.2,.2,1.6,.7c.5,.4,.7,1,.7,1.6v.3h6.9c.6,0,1.2,.2,1.6,.7c.5,.4,.7,1,.7,1.6V545c0,.6,-.2,1.2,-.7,1.6c-.4,.5,-1,.7,-1.6,.7H53.4c-.6,0,-1.1,-.2,-1.6,-.7c-.4,-.4,-.6,-1,-.6,-1.6Z" class="g12_1" />
<text x="77" y="547" class="s9_1">tests/ </text>
<path d="M52.5,568.5c0,.3,.1,.5,.2,.7c.2,.2,.5,.3,.7,.3H65.9c.3,0,.5,-.1,.7,-.3c.2,-.2,.3,-.4,.3,-.7v-7.2c0,-.2,-.1,-.5,-.3,-.7c-.2,-.2,-.4,-.3,-.7,-.3H58.7c-.3,0,-.5,0,-.7,-.2c-.2,-.2,-.3,-.5,-.3,-.7v-.7c0,-.3,-.1,-.5,-.3,-.7c-.2,-.2,-.4,-.3,-.7,-.3H53.4c-.2,0,-.5,.1,-.7,.3c-.1,.2,-.2,.4,-.2,.7Zm-1.3,0v-9.8c0,-.6,.2,-1.2,.6,-1.6c.5,-.5,1,-.7,1.6,-.7h3.3c.6,0,1.2,.2,1.6,.7c.5,.4,.7,1,.7,1.6v.3h6.9c.6,0,1.2,.3,1.6,.7c.5,.5,.7,1,.7,1.6v7.2c0,.7,-.2,1.2,-.7,1.6c-.4,.5,-1,.7,-1.6,.7H53.4c-.6,0,-1.1,-.2,-1.6,-.7c-.4,-.4,-.6,-.9,-.6,-1.6Z" class="g12_1" />
<text x="77" y="570" class="s9_1">man/ </text>
<path d="M52.5,592.1c0,.2,.1,.5,.2,.7c.2,.1,.5,.2,.7,.2H65.9c.3,0,.5,-.1,.7,-.2c.2,-.2,.3,-.5,.3,-.7v-7.2c0,-.3,-.1,-.5,-.3,-.7c-.2,-.2,-.4,-.3,-.7,-.3H58.7c-.3,0,-.5,-.1,-.7,-.3c-.2,-.2,-.3,-.4,-.3,-.7v-.7c0,-.2,-.1,-.5,-.3,-.7c-.2,-.1,-.4,-.2,-.7,-.2H53.4c-.2,0,-.5,.1,-.7,.2c-.1,.2,-.2,.5,-.2,.7Zm-1.3,0v-9.9c0,-.6,.2,-1.1,.6,-1.6c.5,-.4,1,-.7,1.6,-.7h3.3c.6,0,1.2,.3,1.6,.7c.5,.5,.7,1,.7,1.6v.4h6.9c.6,0,1.2,.2,1.6,.6c.5,.5,.7,1,.7,1.7v7.2c0,.6,-.2,1.1,-.7,1.6c-.4,.4,-1,.7,-1.6,.7H53.4c-.6,0,-1.1,-.3,-1.6,-.7c-.4,-.5,-.6,-1,-.6,-1.6Z" class="g12_1" />
<text x="77" y="594" class="s9_1">vignettes/ </text>
<path d="M228.3,517.6l-.5,-1.5c0,-4.8,4.4,-9.5,9.2,-9.5h75.8c4.8,0,8.2,4.7,8.2,9.5v1.5c0,4.8,-3.4,8.9,-8.2,8.9H237c-4.8,0,-8.7,-4.1,-8.7,-8.9Z" class="g11_1" />
<path d="M228.3,494.2l-.5,-1.5c0,-4.8,4.4,-9,9.2,-9h75.8c4.8,0,8.2,4.2,8.2,9v1.5c0,4.8,-3.4,9.4,-8.2,9.4H237c-4.8,0,-8.7,-4.6,-8.7,-9.4Z" class="g11_1" />
<path d="M228.3,541l-.5,-1.5c0,-4.8,4.4,-8.4,9.2,-8.4h75.8c4.8,0,8.2,3.6,8.2,8.4V541c0,4.8,-3.4,8.4,-8.2,8.4H237c-4.8,0,-8.7,-3.6,-8.7,-8.4Z" class="g11_1" />
<path d="M228.3,564.4l-.5,-1.5c0,-4.8,4.4,-8.9,9.2,-8.9h75.8c4.8,0,8.2,4.1,8.2,8.9v1.5c0,4.8,-3.4,9.5,-8.2,9.5H237c-4.8,0,-8.7,-4.7,-8.7,-9.5Z" class="g11_1" />
<path d="M228.3,587.8l-.5,-1.5c0,-4.9,4.4,-9.4,9.2,-9.4h75.8c4.8,0,8.2,4.5,8.2,9.4v1.5c0,4.8,-3.4,9,-8.2,9H237c-4.8,0,-8.7,-4.2,-8.7,-9Z" class="g11_1" />
<text x="253" y="497" dx="0,0,-0.3,-0.1,0" class="s8_1">Setup</text>
<text x="236" y="521" dx="0,0,0,0,-0.2,0,0,-0.4,0,0" class="s8_1">Write code</text>
<text x="260" y="545" dx="0,-1.2,0,0" class="s8_1">Test</text>
<text x="238" y="569" class="s8_1">Document</text>
<text x="253" y="592" dx="0,-1.2,-0.2,0,0" class="s8_1">Teach</text>
<path d="M314.9,605.2H338V417.6H314.9V605.2Z" class="g9_1" />
<path d="M314.9,605.2H338V417.6H314.9V605.2Z" class="g9_1" />
<path d="M327.1,605.2H338V417.6H327.1V605.2Z" class="g9_1" />
<path d="M327.1,605.2H338V417.6H327.1V605.2Z" class="g9_1" />
<path d="M32,605.2H338V417.6H32V605.2Z" class="g9_1" />
<path d="M32,605.2H338V417.6H32V605.2Z" class="g9_1" />
<path d="M32,605.2H337V417.6H32V605.2Z" class="g9_1" />
<text x="32" y="429" dx="0,-0.2,0,0" class="s7_1">to w</text>
<text x="248" y="429" dx="0,-0.4,0,0,0,0,0" class="s7_1">common </text>
<path d="M32,605.2H276.7V470H32V605.2Z" class="g9_1" />
<path d="M32,605.2H312.9V466.4H32V605.2Z" class="g9_1" />
<path d="M122.1,533.6l-.5,-1.5c0,-4.8,4.4,-9.4,9.2,-9.4h75.8c4.8,0,8.2,4.6,8.2,9.4v1.5c0,4.8,-3.4,8.9,-8.2,8.9H130.8c-4.8,0,-8.7,-4.1,-8.7,-8.9Z" class="g11_1" />
<path d="M122.1,510.2l-.5,-1.5c0,-4.8,4.4,-8.9,9.2,-8.9h75.8c4.8,0,8.2,4.1,8.2,8.9v1.5c0,4.8,-3.4,9.4,-8.2,9.4H130.8c-4.8,0,-8.7,-4.6,-8.7,-9.4Z" class="g11_1" />
<path d="M122.1,557l-.5,-1.5c0,-4.8,4.4,-8.4,9.2,-8.4h75.8c4.8,0,8.2,3.6,8.2,8.4V557c0,4.8,-3.4,8.5,-8.2,8.5H130.8c-4.8,0,-8.7,-3.7,-8.7,-8.5Z" class="g11_1" />
<path d="M122.1,580.4l-.5,-1.5c0,-4.8,4.4,-8.9,9.2,-8.9h75.8c4.8,0,8.2,4.1,8.2,8.9v1.5c0,4.8,-3.4,9.5,-8.2,9.5H130.8c-4.8,0,-8.7,-4.7,-8.7,-9.5Z" class="g11_1" />
<text x="147" y="513" dx="0,0,-0.3,-0.1,0" class="s8_1">Setup</text>
<text x="130" y="537" dx="0,0,0,0,-0.2,0,0,-0.4,0,0" class="s8_1">Write code</text>
<text x="154" y="561" dx="0,-1.2,0,0" class="s8_1">Test</text>
<text x="132" y="585" class="s8_1">Document</text>
<path d="M32,605.2H338V417.6H32V605.2Z" class="g9_1" />
<path d="M32,605.2H338V417.6H32V605.2Z" class="g9_1" />
<path d="M32,605.2H338V417.6H32V605.2Z" class="g9_1" />
<path d="M32,605.2H338V431H32V605.2Z" class="g9_1" />
<path d="M32,605.2H338V427.4H32V605.2Z" class="g9_1" />
<text x="49" y="453" class="s9_1">Package </text>
<path d="M63.2,466.8V462c.1,.1,.2,.2,.3,.3l4.2,4.2c.1,.1,.2,.2,.3,.3ZM52.7,479V462.6c0,-.3,.1,-.5,.3,-.7c.2,-.2,.4,-.3,.7,-.3h8.1v5.6c0,.2,.1,.5,.3,.7c.2,.2,.5,.3,.7,.3h5.6V479c0,.2,-.1,.5,-.3,.7c-.2,.1,-.4,.2,-.7,.2H53.7c-.3,0,-.5,-.1,-.7,-.2c-.2,-.2,-.3,-.5,-.3,-.7Z" class="g12_1" />
<text x="77" y="477" class="s9_1">DESCRIPTION </text>
<path d="M54,498.6c0,.2,.1,.5,.3,.7c.2,.1,.4,.2,.7,.2H67.4c.3,0,.5,-.1,.7,-.2c.2,-.2,.3,-.5,.3,-.7v-7.2c0,-.3,-.1,-.5,-.3,-.7c-.2,-.2,-.4,-.3,-.7,-.3H60.2c-.3,0,-.5,-.1,-.7,-.3c-.2,-.2,-.3,-.4,-.3,-.7v-.7c0,-.2,-.1,-.5,-.3,-.7c-.1,-.1,-.4,-.2,-.7,-.2H55c-.3,0,-.5,.1,-.7,.2c-.2,.2,-.3,.5,-.3,.7Zm-1.3,0v-9.9c0,-.6,.2,-1.1,.7,-1.6c.4,-.4,.9,-.7,1.6,-.7h3.2c.7,0,1.2,.3,1.7,.7c.4,.5,.6,1,.6,1.6v.4h6.9c.6,0,1.2,.2,1.6,.6c.5,.5,.7,1,.7,1.7v7.2c0,.6,-.2,1.1,-.7,1.6c-.4,.4,-1,.7,-1.6,.7H55c-.7,0,-1.2,-.3,-1.6,-.7c-.5,-.5,-.7,-1,-.7,-1.6Z" class="g12_1" />
<text x="78" y="500" class="s9_1">R/ </text>
<path d="M54,522.1c0,.3,.1,.5,.3,.7c.2,.2,.4,.3,.7,.3H67.4c.3,0,.5,-.1,.7,-.3c.2,-.2,.3,-.4,.3,-.7v-7.2c0,-.3,-.1,-.5,-.3,-.7c-.2,-.2,-.4,-.3,-.7,-.3H60.2c-.3,0,-.5,-.1,-.7,-.3c-.2,-.2,-.3,-.4,-.3,-.7v-.6c0,-.3,-.1,-.5,-.3,-.7c-.1,-.2,-.4,-.3,-.7,-.3H55c-.3,0,-.5,.1,-.7,.3c-.2,.2,-.3,.4,-.3,.7Zm-1.3,0v-9.8c0,-.7,.2,-1.2,.7,-1.6c.4,-.5,.9,-.7,1.6,-.7h3.2c.7,0,1.2,.2,1.7,.7c.4,.4,.6,.9,.6,1.6v.3h6.9c.6,0,1.2,.2,1.6,.7c.5,.4,.7,1,.7,1.6v7.2c0,.6,-.2,1.2,-.7,1.6c-.4,.5,-1,.7,-1.6,.7H55c-.7,0,-1.2,-.2,-1.6,-.7c-.5,-.4,-.7,-1,-.7,-1.6Z" class="g12_1" />
<text x="78" y="524" class="s9_1">tests/ </text>
<path d="M54,545.6c0,.3,.1,.5,.3,.7c.2,.2,.4,.3,.7,.3H67.4c.3,0,.5,-.1,.7,-.3c.2,-.2,.3,-.4,.3,-.7v-7.2c0,-.3,-.1,-.5,-.3,-.7c-.2,-.2,-.4,-.3,-.7,-.3H60.2c-.3,0,-.5,-.1,-.7,-.3c-.2,-.1,-.3,-.4,-.3,-.7v-.6c0,-.3,-.1,-.5,-.3,-.7c-.1,-.2,-.4,-.3,-.7,-.3H55c-.3,0,-.5,.1,-.7,.3c-.2,.2,-.3,.4,-.3,.7Zm-1.3,0v-9.8c0,-.6,.2,-1.2,.7,-1.6c.4,-.5,.9,-.7,1.6,-.7h3.2c.7,0,1.2,.2,1.7,.7c.4,.4,.6,1,.6,1.6v.3h6.9c.6,0,1.2,.2,1.6,.7c.5,.4,.7,1,.7,1.6v7.2c0,.6,-.2,1.2,-.7,1.6c-.4,.5,-1,.7,-1.6,.7H55c-.7,0,-1.2,-.2,-1.6,-.7c-.5,-.4,-.7,-1,-.7,-1.6Z" class="g12_1" />
<text x="78" y="547" class="s9_1">man/ </text>
<path d="M54,569.1c0,.3,.1,.5,.3,.7c.2,.2,.4,.3,.7,.3H67.4c.3,0,.5,-.1,.7,-.3c.2,-.2,.3,-.4,.3,-.7v-7.2c0,-.2,-.1,-.5,-.3,-.7c-.2,-.1,-.4,-.2,-.7,-.2H60.2c-.3,0,-.5,-.1,-.7,-.3c-.2,-.2,-.3,-.4,-.3,-.7v-.7c0,-.2,-.1,-.5,-.3,-.7c-.1,-.2,-.4,-.3,-.7,-.3H55c-.3,0,-.5,.1,-.7,.3c-.2,.2,-.3,.5,-.3,.7Zm-1.3,0v-9.8c0,-.6,.2,-1.1,.7,-1.6c.4,-.4,.9,-.7,1.6,-.7h3.2c.7,0,1.2,.3,1.7,.7c.4,.5,.6,1,.6,1.6v.3h6.9c.6,0,1.2,.3,1.6,.7c.5,.5,.7,1,.7,1.6v7.2c0,.7,-.2,1.2,-.7,1.7c-.4,.4,-1,.6,-1.6,.6H55c-.7,0,-1.2,-.2,-1.6,-.6c-.5,-.5,-.7,-1,-.7,-1.7Z" class="g12_1" />
<text x="78" y="571" class="s9_1">vignettes/ </text>
<path d="M54,592.7c0,.2,.1,.5,.3,.7c.2,.2,.4,.3,.7,.3H67.4c.3,0,.5,-.1,.7,-.3c.2,-.2,.3,-.5,.3,-.7v-7.2c0,-.3,-.1,-.5,-.3,-.7c-.2,-.2,-.4,-.3,-.7,-.3H60.2c-.3,0,-.5,-.1,-.7,-.3c-.2,-.2,-.3,-.4,-.3,-.7v-.7c0,-.2,-.1,-.5,-.3,-.6c-.1,-.2,-.4,-.3,-.7,-.3H55c-.3,0,-.5,.1,-.7,.3c-.2,.1,-.3,.4,-.3,.6Zm-1.3,0v-9.9c0,-.6,.2,-1.1,.7,-1.6c.4,-.4,.9,-.6,1.6,-.6h3.2c.7,0,1.2,.2,1.7,.6c.4,.5,.6,1,.6,1.6v.4h6.9c.6,0,1.2,.2,1.6,.7c.5,.4,.7,.9,.7,1.6v7.2c0,.6,-.2,1.1,-.7,1.6c-.4,.4,-1,.7,-1.6,.7H55c-.7,0,-1.2,-.3,-1.6,-.7c-.5,-.5,-.7,-1,-.7,-1.6Z" class="g12_1" />
<text x="78" y="594" class="s9_1">data/ </text>
<path d="M229.8,494.7l-.5,-1.5c0,-4.8,4.4,-9.5,9.2,-9.5h75.8c4.8,0,8.2,4.7,8.2,9.5v1.5c0,4.8,-3.4,8.9,-8.2,8.9H238.5c-4.8,0,-8.7,-4.1,-8.7,-8.9Z" class="g11_1" />
<path d="M229.8,471.3l-.5,-1.5c0,-4.8,4.4,-9,9.2,-9h75.8c4.8,0,8.2,4.2,8.2,9v1.5c0,4.8,-3.4,9.4,-8.2,9.4H238.5c-4.8,0,-8.7,-4.6,-8.7,-9.4Z" class="g11_1" />
<path d="M229.8,518.1l-.5,-1.6c0,-4.8,4.4,-8.3,9.2,-8.3h75.8c4.8,0,8.2,3.5,8.2,8.3v1.6c0,4.8,-3.4,8.4,-8.2,8.4H238.5c-4.8,0,-8.7,-3.6,-8.7,-8.4Z" class="g11_1" />
<path d="M229.8,541.5l-.5,-1.6c0,-4.8,4.4,-8.8,9.2,-8.8h75.8c4.8,0,8.2,4,8.2,8.8v1.6c0,4.8,-3.4,9.4,-8.2,9.4H238.5c-4.8,0,-8.7,-4.6,-8.7,-9.4Z" class="g11_1" />
<path d="M229.8,564.9l-.5,-1.6c0,-4.8,4.4,-9.3,9.2,-9.3h75.8c4.8,0,8.2,4.5,8.2,9.3v1.6c0,4.8,-3.4,9,-8.2,9H238.5c-4.8,0,-8.7,-4.2,-8.7,-9Z" class="g11_1" />
<path d="M229.8,588.3l-.5,-1.6c0,-4.8,4.4,-8.3,9.2,-8.3h75.8c4.8,0,8.2,3.5,8.2,8.3v1.6c0,4.8,-3.4,8.5,-8.2,8.5H238.5c-4.8,0,-8.7,-3.7,-8.7,-8.5Z" class="g11_1" />
<text x="255" y="474" dx="0,0,-0.3,-0.1,0" class="s8_1">Setup</text>
<text x="238" y="498" dx="0,0,0,0,-0.2,0,0,-0.4,0,0" class="s8_1">Write code</text>
<text x="261" y="522" dx="0,-1.2,0,0" class="s8_1">Test</text>
<text x="240" y="546" class="s8_1">Document</text>
<text x="255" y="569" dx="0,-1.2,-0.2,0,0" class="s8_1">Teach</text>
<text x="244" y="592" dx="0,0,0,0,0,0,0,-0.2" class="s8_1">Add data</text>
<path d="M32,605.2H338V417.6H32V605.2Z" class="g9_1" />
<path d="M32,605.2H338V417.6H32V605.2Z" class="g9_1" />
<path d="M32,605.2H338V417.6H32V605.2Z" class="g9_1" />
<path d="M32,605.2H288.9V450.9H32V605.2Z" class="g9_1" />
<path d="M32,605.2H325.1V447.3H32V605.2Z" class="g9_1" />
<path d="M134.4,514.5l-.6,-1.5c0,-4.8,4.4,-9.4,9.2,-9.4h75.9c4.8,0,8.1,4.6,8.1,9.4v1.5c0,4.8,-3.3,8.9,-8.1,8.9H143c-4.8,0,-8.6,-4.1,-8.6,-8.9Z" class="g11_1" />
<path d="M134.4,491.2l-.6,-1.6c0,-4.8,4.4,-8.9,9.2,-8.9h75.9c4.8,0,8.1,4.1,8.1,8.9v1.6c0,4.8,-3.3,9.3,-8.1,9.3H143c-4.8,0,-8.6,-4.5,-8.6,-9.3Z" class="g11_1" />
<path d="M134.4,537.9l-.6,-1.5c0,-4.8,4.4,-8.4,9.2,-8.4h75.9c4.8,0,8.1,3.6,8.1,8.4v1.5c0,4.8,-3.3,8.5,-8.1,8.5H143c-4.8,0,-8.6,-3.7,-8.6,-8.5Z" class="g11_1" />
<path d="M134.4,561.3l-.6,-1.5c0,-4.8,4.4,-8.9,9.2,-8.9h75.9c4.8,0,8.1,4.1,8.1,8.9v1.5c0,4.8,-3.3,9.5,-8.1,9.5H143c-4.8,0,-8.6,-4.7,-8.6,-9.5Z" class="g11_1" />
<path d="M134.4,584.7l-.6,-1.5c0,-4.8,4.4,-9.3,9.2,-9.3h75.9c4.8,0,8.1,4.5,8.1,9.3v1.5c0,4.8,-3.3,9,-8.1,9H143c-4.8,0,-8.6,-4.2,-8.6,-9Z" class="g11_1" />
<text x="159" y="494" dx="0,0,-0.3,-0.1,0" class="s8_1">Setup</text>
<text x="142" y="518" dx="0,0,0,0,-0.2,0,0,-0.4,0,0" class="s8_1">Write code</text>
<text x="166" y="542" dx="0,-1.2,0,0" class="s8_1">Test</text>
<text x="144" y="566" class="s8_1">Document</text>
<text x="159" y="589" dx="0,-1.2,-0.2,0,0" class="s8_1">Teach</text>
<path d="M32,605.2H338V417.6H32V605.2Z" class="g9_1" />
<path d="M39.3,432.6c-.1,.2,-.1,.3,-.1,.4c0,.3,.1,.4,.5,.4H50.8c.3,0,.6,-.1,.9,-.2c.3,-.2,.6,-.4,.7,-.6l3,-3.7c.2,-.1,.2,-.3,.2,-.4c0,-.2,-.2,-.3,-.5,-.3H44c-.3,0,-.6,0,-.9,.2c-.3,.1,-.6,.3,-.8,.5Zm-.6,-1.3l2.6,-3.2c.3,-.4,.7,-.7,1.2,-.9c.5,-.2,1,-.4,1.5,-.4h7.8v-1.6c0,-.3,-.1,-.5,-.3,-.7c-.2,-.2,-.4,-.3,-.7,-.3H44.9c-.2,0,-.5,-.1,-.7,-.3c-.2,-.2,-.2,-.4,-.2,-.7v-.6c0,-.3,-.1,-.5,-.3,-.7c-.2,-.2,-.5,-.3,-.7,-.3H39.7c-.3,0,-.5,.1,-.7,.3c-.2,.2,-.3,.4,-.3,.7Zm-1.3,1.1v-9.8c0,-.6,.2,-1.2,.7,-1.6c.4,-.5,1,-.7,1.6,-.7H43c.6,0,1.1,.2,1.6,.7c.4,.4,.7,1,.7,1.6v.3h5.5c.7,0,1.2,.2,1.6,.7c.5,.4,.7,1,.7,1.6v1.6h2c.3,0,.7,.1,1,.3c.3,.2,.5,.4,.7,.7c.1,.2,.1,.5,.1,.7c0,.4,-.1,.8,-.4,1.2l-3.1,3.8c-.2,.3,-.6,.6,-1.1,.8c-.5,.3,-1,.4,-1.5,.4H39.7c-.6,0,-1.2,-.2,-1.6,-.7c-.5,-.4,-.7,-1,-.7,-1.6Z" class="g12_1" />
<text x="61" y="434" class="s9_1">Package </text>
<path d="M75.4,447.7v-4.8c.1,.1,.3,.2,.3,.3l4.2,4.2c.1,.1,.2,.2,.3,.3ZM64.9,459.9V443.5c0,-.3,.1,-.5,.3,-.7c.2,-.2,.4,-.3,.7,-.3h8.2v5.6c0,.3,.1,.5,.3,.7c.1,.2,.4,.3,.7,.3h5.5v10.8c0,.2,-.1,.5,-.3,.7c-.2,.2,-.4,.2,-.7,.2H65.9c-.3,0,-.5,0,-.7,-.2c-.2,-.2,-.3,-.5,-.3,-.7Z" class="g12_1" />
<text x="89" y="458" class="s9_1">DESCRIPTION </text>
<path d="M66.2,479.5c0,.2,.1,.5,.3,.7c.2,.1,.4,.2,.7,.2H79.6c.3,0,.5,-.1,.7,-.2c.2,-.2,.3,-.5,.3,-.7v-7.2c0,-.3,-.1,-.5,-.3,-.7c-.2,-.2,-.4,-.3,-.7,-.3H72.4c-.2,0,-.5,-.1,-.7,-.3c-.2,-.2,-.2,-.4,-.2,-.7v-.7c0,-.2,-.1,-.5,-.3,-.7c-.2,-.1,-.5,-.2,-.7,-.2H67.2c-.3,0,-.5,.1,-.7,.2c-.2,.2,-.3,.5,-.3,.7Zm-1.3,0v-9.9c0,-.6,.2,-1.1,.7,-1.6c.4,-.4,1,-.7,1.6,-.7h3.3c.6,0,1.1,.3,1.6,.7c.4,.5,.7,1,.7,1.6v.4h6.8c.7,0,1.2,.2,1.7,.6c.4,.5,.6,1,.6,1.7v7.2c0,.6,-.2,1.1,-.6,1.6c-.5,.4,-1,.7,-1.7,.7H67.2c-.6,0,-1.2,-.3,-1.6,-.7c-.5,-.5,-.7,-1,-.7,-1.6Z" class="g12_1" />
<text x="91" y="481" class="s9_1">R/ </text>
<path d="M66.2,503c0,.3,.1,.5,.3,.7c.2,.2,.4,.3,.7,.3H79.6c.3,0,.5,-.1,.7,-.3c.2,-.2,.3,-.4,.3,-.7v-7.2c0,-.3,-.1,-.5,-.3,-.7c-.2,-.2,-.4,-.3,-.7,-.3H72.4c-.2,0,-.5,-.1,-.7,-.3c-.2,-.2,-.2,-.4,-.2,-.7v-.6c0,-.3,-.1,-.5,-.3,-.7c-.2,-.2,-.5,-.3,-.7,-.3H67.2c-.3,0,-.5,.1,-.7,.3c-.2,.2,-.3,.4,-.3,.7Zm-1.3,0v-9.8c0,-.7,.2,-1.2,.7,-1.6c.4,-.5,1,-.7,1.6,-.7h3.3c.6,0,1.1,.2,1.6,.7c.4,.4,.7,.9,.7,1.6v.3h6.8c.7,0,1.2,.2,1.7,.7c.4,.4,.6,1,.6,1.6V503c0,.6,-.2,1.2,-.6,1.6c-.5,.5,-1,.7,-1.7,.7H67.2c-.6,0,-1.2,-.2,-1.6,-.7c-.5,-.4,-.7,-1,-.7,-1.6Z" class="g12_1" />
<text x="91" y="505" class="s9_1">tests/ </text>
<path d="M66.2,526.5c0,.3,.1,.5,.3,.7c.2,.2,.4,.3,.7,.3H79.6c.3,0,.5,-.1,.7,-.3c.2,-.2,.3,-.4,.3,-.7v-7.2c0,-.3,-.1,-.5,-.3,-.7c-.2,-.2,-.4,-.3,-.7,-.3H72.4c-.2,0,-.5,-.1,-.7,-.3c-.2,-.1,-.2,-.4,-.2,-.6v-.7c0,-.3,-.1,-.5,-.3,-.7c-.2,-.2,-.5,-.3,-.7,-.3H67.2c-.3,0,-.5,.1,-.7,.3c-.2,.2,-.3,.4,-.3,.7Zm-1.3,0v-9.8c0,-.6,.2,-1.2,.7,-1.6c.4,-.5,1,-.7,1.6,-.7h3.3c.6,0,1.1,.2,1.6,.7c.4,.4,.7,1,.7,1.6v.3h6.8c.7,0,1.2,.2,1.7,.7c.4,.4,.6,1,.6,1.6v7.2c0,.6,-.2,1.2,-.6,1.6c-.5,.5,-1,.7,-1.7,.7H67.2c-.6,0,-1.2,-.2,-1.6,-.7c-.5,-.4,-.7,-1,-.7,-1.6Z" class="g12_1" />
<text x="91" y="528" class="s9_1">man/ </text>
<path d="M66.2,550c0,.3,.1,.6,.3,.7c.2,.2,.4,.3,.7,.3H79.6c.3,0,.5,-.1,.7,-.3c.2,-.1,.3,-.4,.3,-.7v-7.2c0,-.2,-.1,-.5,-.3,-.7c-.2,-.1,-.4,-.2,-.7,-.2H72.4c-.2,0,-.5,-.1,-.7,-.3c-.2,-.2,-.2,-.4,-.2,-.7v-.7c0,-.2,-.1,-.5,-.3,-.7c-.2,-.2,-.5,-.3,-.7,-.3H67.2c-.3,0,-.5,.1,-.7,.3c-.2,.2,-.3,.5,-.3,.7Zm-1.3,0v-9.8c0,-.6,.2,-1.1,.7,-1.6c.4,-.4,1,-.7,1.6,-.7h3.3c.6,0,1.1,.3,1.6,.7c.4,.5,.7,1,.7,1.6v.4h6.8c.7,0,1.2,.2,1.7,.6c.4,.5,.6,1,.6,1.6V550c0,.7,-.2,1.2,-.6,1.7c-.5,.4,-1,.6,-1.7,.6H67.2c-.6,0,-1.2,-.2,-1.6,-.6c-.5,-.5,-.7,-1,-.7,-1.7Z" class="g12_1" />
<text x="91" y="552" class="s9_1">vignettes/ </text>
<path d="M66.2,573.6c0,.2,.1,.5,.3,.7c.2,.2,.4,.3,.7,.3H79.6c.3,0,.5,-.1,.7,-.3c.2,-.2,.3,-.5,.3,-.7v-7.2c0,-.3,-.1,-.5,-.3,-.7c-.2,-.2,-.4,-.3,-.7,-.3H72.4c-.2,0,-.5,-.1,-.7,-.3c-.2,-.2,-.2,-.4,-.2,-.7v-.7c0,-.2,-.1,-.5,-.3,-.6c-.2,-.2,-.5,-.3,-.7,-.3H67.2c-.3,0,-.5,.1,-.7,.3c-.2,.1,-.3,.4,-.3,.6Zm-1.3,0v-9.9c0,-.6,.2,-1.1,.7,-1.6c.4,-.4,1,-.6,1.6,-.6h3.3c.6,0,1.1,.2,1.6,.6c.4,.5,.7,1,.7,1.6v.4h6.8c.7,0,1.2,.2,1.7,.7c.4,.4,.6,.9,.6,1.6v7.2c0,.6,-.2,1.1,-.6,1.6c-.5,.4,-1,.7,-1.7,.7H67.2c-.6,0,-1.2,-.3,-1.6,-.7c-.5,-.5,-.7,-1,-.7,-1.6Z" class="g12_1" />
<text x="91" y="575" class="s9_1">data/ </text>
<path d="M75.4,588.9v-4.8c.1,.1,.3,.2,.3,.3l4.2,4.1c.1,.1,.2,.3,.3,.4ZM64.9,601V584.7c0,-.3,.1,-.5,.3,-.7c.2,-.2,.4,-.3,.7,-.3h8.2v5.5c0,.3,.1,.5,.3,.7c.1,.2,.4,.3,.7,.3h5.5V601c0,.3,-.1,.5,-.3,.7c-.2,.2,-.4,.3,-.7,.3H65.9c-.3,0,-.5,-.1,-.7,-.3c-.2,-.2,-.3,-.4,-.3,-.7Z" class="g12_1" />
<text x="89" y="599" class="s9_1">NAMESPACE </text>
<path d="M242.1,475.6l-.6,-1.5c0,-4.8,4.5,-9.5,9.3,-9.5h75.8c4.8,0,8.1,4.7,8.1,9.5v1.5c0,4.8,-3.3,8.9,-8.1,8.9H250.8c-4.8,0,-8.7,-4.1,-8.7,-8.9Z" class="g11_1" />
<path d="M242.1,452.2l-.6,-1.5c0,-4.8,4.5,-9,9.3,-9h75.8c4.8,0,8.1,4.2,8.1,9v1.5c0,4.8,-3.3,9.4,-8.1,9.4H250.8c-4.8,0,-8.7,-4.6,-8.7,-9.4Z" class="g11_1" />
<path d="M242.1,499l-.6,-1.6c0,-4.8,4.5,-8.3,9.3,-8.3h75.8c4.8,0,8.1,3.5,8.1,8.3V499c0,4.8,-3.3,8.4,-8.1,8.4H250.8c-4.8,0,-8.7,-3.6,-8.7,-8.4Z" class="g11_1" />
<path d="M242.1,522.4l-.6,-1.6c0,-4.8,4.5,-8.8,9.3,-8.8h75.8c4.8,0,8.1,4,8.1,8.8v1.6c0,4.8,-3.3,9.4,-8.1,9.4H250.8c-4.8,0,-8.7,-4.6,-8.7,-9.4Z" class="g11_1" />
<path d="M242.1,545.8l-.6,-1.6c0,-4.8,4.5,-9.3,9.3,-9.3h75.8c4.8,0,8.1,4.5,8.1,9.3v1.6c0,4.8,-3.3,9,-8.1,9H250.8c-4.8,0,-8.7,-4.2,-8.7,-9Z" class="g11_1" />
<path d="M242.1,569.2l-.6,-1.6c0,-4.8,4.5,-8.3,9.3,-8.3h75.8c4.8,0,8.1,3.5,8.1,8.3v1.6c0,4.8,-3.3,8.5,-8.1,8.5H250.8c-4.8,0,-8.7,-3.7,-8.7,-8.5Z" class="g11_1" />
<path d="M242.1,592.6l-.6,-1.6c0,-4.8,4.5,-8.7,9.3,-8.7h75.8c4.8,0,8.1,3.9,8.1,8.7v1.6c0,4.8,-3.3,8,-8.1,8H250.8c-4.8,0,-8.7,-3.2,-8.7,-8Z" class="g11_1" />
<text x="267" y="455" dx="0,0,-0.3,-0.1,0" class="s8_1">Setup</text>
<text x="250" y="479" dx="0,0,0,0,-0.2,0,0,-0.4,0,0" class="s8_1">Write code</text>
<text x="273" y="503" dx="0,-1.2,0,0" class="s8_1">Test</text>
<text x="252" y="527" class="s8_1">Document</text>
<text x="267" y="550" dx="0,-1.2,-0.2,0,0" class="s8_1">Teach</text>
<text x="256" y="573" dx="0,0,0,0,0,0,0,-0.2" class="s8_1">Add data</text>
<text x="256" y="595" dx="0,0,-0.2,-0.3,0,0,0,-0.2" class="s8_1">Organize</text>


<!-- Any embedded fonts defined here -->
<style type="text/css" ><![CDATA[

@font-face {
	font-family: Menlo-Regular_b;
	src: url("fonts/Menlo-Regular_b.woff") format("woff");
}

@font-face {
	font-family: SourceSansPro-Bold_8;
	src: url("fonts/SourceSansPro-Bold_8.woff") format("woff");
}

@font-face {
	font-family: SourceSansPro-Semibold_9;
	src: url("fonts/SourceSansPro-Semibold_9.woff") format("woff");
}

@font-face {
	font-family: SourceSansPro-Regular_a;
	src: url("fonts/SourceSansPro-Regular_a.woff") format("woff");
}

]]></style>

</svg>
